<svg xmlns="http://www.w3.org/2000/svg" viewBox="0 0 1200 760" fill="none">
  <rect width="1200" height="760" fill="#06110d"/>
  <rect x="112" y="118" width="976" height="524" rx="36" fill="#e0d7c6"/>
  <rect x="160" y="170" width="298" height="84" rx="18" fill="#f39222"/>
  <path d="M208 212H320L352 170H240L208 212Z" fill="#cb6d0e"/>
  <rect x="528" y="188" width="388" height="196" rx="28" fill="#242a2f"/>
  <rect x="568" y="228" width="308" height="116" rx="18" fill="#0f1214"/>
  <rect x="930" y="188" width="84" height="244" rx="22" fill="#1c3f33"/>
  <g fill="#0b8e58" opacity="0.9">
    <rect x="252" y="432" width="636" height="148" rx="22"/>
    <rect x="188" y="468" width="42" height="76" rx="14"/>
    <rect x="908" y="468" width="42" height="76" rx="14"/>
  </g>
  <g fill="#d7c6a0">
    <rect x="290" y="604" width="560" height="14" rx="7"/>
    <rect x="254" y="632" width="632" height="14" rx="7"/>
  </g>
  <g fill="#f9f1e5" opacity="0.8">
    <circle cx="982" cy="246" r="15"/>
    <circle cx="982" cy="300" r="15"/>
    <circle cx="982" cy="354" r="15"/>
  </g>
</svg>
