<svg xmlns="http://www.w3.org/2000/svg" viewBox="0 0 1200 760" fill="none">
  <rect width="1200" height="760" fill="#04110d"/>
  <rect x="66" y="58" width="1068" height="644" rx="34" fill="#081c15" stroke="#28cb85" stroke-opacity="0.45" stroke-width="6"/>
  <g opacity="0.96">
    <rect x="128" y="118" width="182" height="32" rx="10" fill="#29f69d"/>
    <rect x="340" y="118" width="110" height="32" rx="10" fill="#ccfdea" fill-opacity="0.8"/>
    <rect x="128" y="172" width="938" height="12" rx="6" fill="#173b2e"/>
  </g>
  <g opacity="0.9">
    <rect x="140" y="236" width="168" height="112" rx="20" fill="#102c22" stroke="#29f69d" stroke-opacity="0.45"/>
    <rect x="334" y="236" width="168" height="112" rx="20" fill="#102c22" stroke="#29f69d" stroke-opacity="0.45"/>
    <rect x="528" y="236" width="168" height="112" rx="20" fill="#102c22" stroke="#29f69d" stroke-opacity="0.45"/>
    <rect x="722" y="236" width="168" height="112" rx="20" fill="#102c22" stroke="#29f69d" stroke-opacity="0.45"/>
    <rect x="916" y="236" width="144" height="112" rx="20" fill="#102c22" stroke="#29f69d" stroke-opacity="0.45"/>
  </g>
  <g stroke-linecap="round">
    <path d="M182 534H1020" stroke="#123528" stroke-width="12"/>
    <path d="M214 420C296 420 296 510 376 510C456 510 458 420 540 420C622 420 624 510 706 510C788 510 790 420 872 420C954 420 954 510 1030 510" stroke="#35ffaa" stroke-width="18"/>
    <path d="M214 470C296 470 296 554 376 554C456 554 458 470 540 470C622 470 624 554 706 554C788 554 790 470 872 470C954 470 954 554 1030 554" stroke="#9af7d0" stroke-opacity="0.65" stroke-width="10"/>
  </g>
  <g opacity="0.75">
    <circle cx="170" cy="626" r="20" fill="#29f69d"/>
    <circle cx="236" cy="626" r="20" fill="#9af7d0"/>
    <circle cx="302" cy="626" r="20" fill="#29f69d"/>
  </g>
</svg>
